<svg width="100" height="110" xmlns="http://www.w3.org/2000/svg" xml:space="preserve" enable-background="new 0 0 100 100" version="1.1">
 <g>
  <title>Layer 1</title>
  <g id="svg_1">
   <path id="svg_2" d="m82.537,58.767c-7.095,0 -13.229,9.548 -20.5,11.757c3.945,1.084 9.608,1.084 16.096,-3.61c0,0 -9.752,11.261 -21.339,3.939c3.104,3.842 6.812,5.361 10.662,5.361c12.004,0 19.289,-11.937 23.222,-11.937c0.683,0 1.359,0.171 1.957,0.68l0.121,0c-2.668,-3.356 -5.959,-6.19 -10.219,-6.19z" fill="#3D291E"/>
   <g id="svg_3">
    <path id="svg_4" d="m67.146,43.719c-6.201,3.449 -6.918,14.779 -12.2,20.243c3.979,-0.97 8.929,-3.721 12.318,-10.976c0,0 -3.052,14.585 -16.734,13.821c4.582,1.846 8.561,1.374 11.925,-0.498c10.486,-5.835 11.045,-19.82 14.483,-21.732c0.595,-0.332 1.283,-0.486 2.036,-0.368l0.105,-0.057c-3.93,-1.575 -8.213,-2.502 -11.933,-0.433z" fill="#85603A"/>
   </g>
   <path id="svg_5" d="m41.401,35.714c-1.178,6.999 7.225,14.634 8.191,22.171c1.728,-3.71 2.671,-9.298 -0.879,-16.474c0,0 9.484,11.493 0.342,21.699c4.304,-2.422 6.419,-5.822 7.059,-9.623c1.994,-11.834 -8.581,-21.004 -7.925,-24.886c0.111,-0.67 0.419,-1.305 0.984,-1.818l0.021,-0.118c-3.681,2.085 -7.083,4.848 -7.793,9.049z" fill="#3D291E"/>
   <path id="svg_6" d="m17.15,58.767c7.095,0 13.23,9.548 20.5,11.757c-3.944,1.084 -9.608,1.084 -16.099,-3.61c0,0 9.756,11.261 21.343,3.939c-3.105,3.842 -6.812,5.361 -10.663,5.361c-12.004,0 -19.289,-11.937 -23.222,-11.937c-0.683,0 -1.359,0.171 -1.958,0.68l-0.119,0c2.667,-3.356 5.959,-6.19 10.218,-6.19z" fill="#3D291E"/>
   <g id="svg_7">
    <path id="svg_8" d="m32.542,43.719c6.202,3.449 6.917,14.779 12.197,20.243c-3.976,-0.97 -8.926,-3.721 -12.315,-10.976c0,0 3.051,14.585 16.734,13.821c-4.582,1.846 -8.561,1.374 -11.925,-0.498c-10.487,-5.835 -11.045,-19.82 -14.483,-21.732c-0.598,-0.332 -1.283,-0.486 -2.036,-0.368l-0.106,-0.057c3.93,-1.575 8.21,-2.502 11.934,-0.433z" fill="#85603A"/>
   </g>
  </g>
  <path stroke="#000" id="svg_9" d="m0,-96.72807l0.38197,0l0.11804,-0.54067l0.11803,0.54067l0.38197,0l-0.30902,0.33415l0.11804,0.54068l-0.30902,-0.33416l-0.30903,0.33416c0.03935,-0.18023 0.0787,-0.36045 0.11804,-0.54068l-0.30902,-0.33415z" fill="#fff"/>
  <text transform="matrix(0.471284 0 0 1.05141 9.5267 -3.33173)" stroke="#000" xml:space="preserve" text-anchor="start" font-family="'Montserrat'" font-size="24" stroke-width="0" id="svg_11" y="98.90666" x="-13.46759" fill="#000000" font-weight="bold" font-style="normal">The FurNurture</text>
 </g>

</svg>